<svg width="63" height="60" viewBox="0 0 63 60" fill="none" xmlns="http://www.w3.org/2000/svg">
<g filter="url(#filter0_f)">
<path d="M31.3394 6.21853C31.4582 5.90087 31.9075 5.90087 32.0263 6.21853L38.3415 23.1076C38.3931 23.2454 38.522 23.339 38.669 23.3455L56.6829 24.1326C57.0217 24.1474 57.1606 24.5747 56.8952 24.7859L42.7843 36.011C42.6691 36.1026 42.6199 36.2541 42.6592 36.3959L47.4772 53.7714C47.5678 54.0982 47.2043 54.3623 46.9215 54.1752L31.8852 44.2236C31.7626 44.1424 31.6032 44.1424 31.4805 44.2236L16.4443 54.1752C16.1615 54.3623 15.7979 54.0982 15.8886 53.7714L20.7066 36.3959C20.7459 36.2541 20.6966 36.1026 20.5815 36.011L6.47058 24.7859C6.20517 24.5747 6.34402 24.1474 6.68284 24.1326L24.6968 23.3455C24.8438 23.339 24.9727 23.2454 25.0242 23.1076L31.3394 6.21853Z" fill="url(#paint0_linear)"/>
</g>
<path d="M30.5507 10.4348C31.2872 10.1955 32.0804 10.1955 32.8169 10.4348L43.8053 14.0052C44.5417 14.2444 45.1835 14.7107 45.6386 15.3372L52.4298 24.6845C52.885 25.3109 53.1301 26.0654 53.1301 26.8397V38.3936C53.1301 39.1679 52.885 39.9224 52.4298 40.5488L45.6386 49.8961C45.1835 50.5226 44.5417 50.9889 43.8053 51.2281L32.8169 54.7985C32.0804 55.0378 31.2872 55.0378 30.5507 54.7985L19.5623 51.2281C18.8259 50.9889 18.1841 50.5226 17.729 49.8961L10.9377 40.5488C10.4826 39.9224 10.2375 39.1679 10.2375 38.3936V26.8397C10.2375 26.0654 10.4826 25.3109 10.9377 24.6845L17.729 15.3372C18.1841 14.7107 18.8259 14.2444 19.5623 14.0052L30.5507 10.4348Z" fill="url(#paint1_linear)"/>
<path d="M31.3669 10.6106C31.5084 10.3678 31.8592 10.3678 32.0006 10.6106L38.8925 22.4432C38.9443 22.5322 39.0311 22.5952 39.1317 22.617L52.5148 25.5151C52.7895 25.5746 52.8979 25.9082 52.7107 26.1178L43.5869 36.3287C43.5183 36.4055 43.4852 36.5076 43.4955 36.61L44.8749 50.2337C44.9032 50.5132 44.6194 50.7194 44.3623 50.6061L31.8316 45.0843C31.7374 45.0428 31.6301 45.0428 31.5359 45.0843L19.0053 50.6061C18.7481 50.7194 18.4643 50.5132 18.4926 50.2337L19.872 36.61C19.8824 36.5076 19.8492 36.4055 19.7807 36.3287L10.6569 26.1178C10.4697 25.9082 10.5781 25.5746 10.8527 25.5151L24.2359 22.617C24.3365 22.5952 24.4233 22.5322 24.4751 22.4432L31.3669 10.6106Z" fill="url(#paint2_linear)"/>
<path d="M31.3226 12.1298C31.3934 11.7252 31.9741 11.7252 32.045 12.1298L34.8037 27.8886C34.8378 28.0835 35.0204 28.2162 35.2163 28.1884L51.0563 25.9424C51.463 25.8847 51.6424 26.437 51.2795 26.6294L37.1445 34.1228C36.9697 34.2155 36.8999 34.4302 36.9869 34.6079L44.0178 48.9786C44.1984 49.3475 43.7286 49.6888 43.4335 49.4031L31.9388 38.2755C31.7967 38.1379 31.5709 38.1379 31.4288 38.2755L19.9341 49.4031C19.639 49.6888 19.1692 49.3475 19.3497 48.9786L26.3807 34.6079C26.4676 34.4302 26.3979 34.2155 26.2231 34.1228L12.088 26.6294C11.7251 26.437 11.9046 25.8847 12.3113 25.9424L28.1513 28.1884C28.3472 28.2162 28.5298 28.0835 28.5639 27.8886L31.3226 12.1298Z" fill="url(#paint3_linear)"/>
<path d="M28.9637 25.605C29.4971 22.5579 33.8705 22.5579 34.4039 25.605C34.6609 27.0729 36.0362 28.0722 37.5117 27.8629C40.5745 27.4287 41.9259 31.588 39.1928 33.0369C37.8762 33.7349 37.3508 35.3517 38.0058 36.6904C39.3652 39.469 35.8271 42.0397 33.6045 39.8881C32.5338 38.8515 30.8338 38.8515 29.7631 39.8881C27.5405 42.0397 24.0023 39.469 25.3618 36.6904C26.0167 35.3517 25.4914 33.7349 24.1747 33.0369C21.4416 31.588 22.7931 27.4287 25.8559 27.8629C27.3314 28.0722 28.7067 27.0729 28.9637 25.605Z" fill="url(#paint4_linear)"/>
<defs>
<filter id="filter0_f" x="0.832031" y="0.480225" width="61.7026" height="59.2571" filterUnits="userSpaceOnUse" color-interpolation-filters="sRGB">
<feFlood flood-opacity="0" result="BackgroundImageFix"/>
<feBlend mode="normal" in="SourceGraphic" in2="BackgroundImageFix" result="shape"/>
<feGaussianBlur stdDeviation="2.75" result="effect1_foregroundBlur"/>
</filter>
<linearGradient id="paint0_linear" x1="40.6662" y1="50.0334" x2="18.7886" y2="18.7819" gradientUnits="userSpaceOnUse">
<stop stop-color="#3000BA"/>
<stop offset="0.285227" stop-color="#0E5DEC"/>
<stop offset="1" stop-color="#0EA9EC"/>
</linearGradient>
<linearGradient id="paint1_linear" x1="32.9276" y1="55.16" x2="14.0466" y2="20.2807" gradientUnits="userSpaceOnUse">
<stop stop-color="#4409EC"/>
<stop offset="0.75566" stop-color="#0E5DEC"/>
<stop offset="1" stop-color="#A6EAFF"/>
</linearGradient>
<linearGradient id="paint2_linear" x1="28.4392" y1="10.0667" x2="45.916" y2="46.8667" gradientUnits="userSpaceOnUse">
<stop stop-color="#A400D6"/>
<stop offset="1" stop-color="#2207C4"/>
</linearGradient>
<linearGradient id="paint3_linear" x1="20.6751" y1="16.8139" x2="53.1749" y2="32.6348" gradientUnits="userSpaceOnUse">
<stop stop-color="#3000BA"/>
<stop offset="0.869792" stop-color="#0E5DEC"/>
<stop offset="1" stop-color="#0EA9EC"/>
</linearGradient>
<linearGradient id="paint4_linear" x1="32.9276" y1="55.16" x2="14.0466" y2="20.2807" gradientUnits="userSpaceOnUse">
<stop stop-color="#4409EC"/>
<stop offset="1" stop-color="#0E5DEC"/>
</linearGradient>
</defs>
</svg>
