<svg width="18" height="18" viewBox="0 0 19 19" fill="none"
  xmlns="http://www.w3.org/2000/svg">
  <circle opacity="0.05" cx="9" cy="9" r="9" transform="rotate(180 9 9)" fill="grey"></circle>
  <path transform="rotate(180 9 9)" d="M12.9536 9.35355C13.1488 9.15829 13.1488 8.84171 12.9536 8.64645L9.77157 5.46447C9.57631 5.2692 9.25973 5.2692 9.06447 5.46447C8.8692 5.65973 8.8692 5.97631 9.06447 6.17157L11.8929 9L9.06447 11.8284C8.8692 12.0237 8.8692 12.3403 9.06447 12.5355C9.25973 12.7308 9.57631 12.7308 9.77157 12.5355L12.9536 9.35355ZM4.5 9.5L12.6 9.5L12.6 8.5L4.5 8.5L4.5 9.5Z" fill="#74AEFF"></path>
</svg>