<svg viewBox="0 0 114 141" fill="none" xmlns="http://www.w3.org/2000/svg">
              <path
                fill-rule="evenodd"
                clip-rule="evenodd"
                d="M16.0456 22.9778C18.4495 28.1436 21.0141 33.3559 22.8347 36.9502L30.2005 14.2535L30.7665 13.9525L37.9767 113.743L39.2783 20.1701L43.4928 7.18389L57 0L85.5 15.1579L113.064 32.4646C113.646 32.8305 114 33.4703 114 34.1584V59.593C114 95.7793 91.1454 128.019 57 140C22.8546 128.019 0 95.7793 0 59.593V34.1584C0 33.4703 0.353734 32.8305 0.93649 32.4646L16.0456 22.9778Z"
                fill="url(#gradient_pom0)"
              ></path>
              <path
                fill-rule="evenodd"
                clip-rule="evenodd"
                d="M27.8607 21.4632L31.0065 19.488L31.1605 19.4061L30.7665 13.9525L30.2005 14.2535L27.8607 21.4632ZM16.0456 22.9778L0.93649 32.4646C0.353734 32.8305 0 33.4703 0 34.1584V59.593C0 95.7793 22.8546 128.019 57 140C91.1454 128.019 114 95.7793 114 59.593V34.1584C114 33.4703 113.646 32.8305 113.064 32.4646L85.5 15.1579L57 0L43.4928 7.18389L41.2715 14.0285L57 5.66319L82.9935 19.488L109 35.8171V59.593C109 93.0678 88.223 122.955 57 134.681C25.777 122.955 5 93.0679 5 59.593V35.8171L18.1974 27.5306C17.4817 26.0377 16.7566 24.5057 16.0456 22.9778Z"
                fill="#293657"
              ></path>
              <defs>
                <linearGradient
                  id="gradient_pom0"
                  x1="57"
                  y1="142.393"
                  x2="57"
                  y2="-6.9707e-06"
                  gradientUnits="userSpaceOnUse"
                >
                  <stop offset="0.520833" stop-color="#EFF2F9"></stop>
                  <stop offset="1" stop-color="#EFF2F9"></stop>
                </linearGradient>
              </defs>
            </svg>