<svg width="14" height="15" viewBox="0 0 17 18" fill="none"
  xmlns="http://www.w3.org/2000/svg">
  <path d="M1.5 7.9C0.892487 7.9 0.4 8.39249 0.4 9C0.4 9.60751 0.892487 10.1 1.5 10.1V7.9ZM16.2778 9.77782C16.7074 9.34824 16.7074 8.65176 16.2778 8.22218L9.27746 1.22183C8.84788 0.792249 8.1514 0.792249 7.72183 1.22183C7.29225 1.6514 7.29225 2.34788 7.72183 2.77746L13.9444 9L7.72183 15.2225C7.29225 15.6521 7.29225 16.3486 7.72183 16.7782C8.1514 17.2078 8.84788 17.2078 9.27746 16.7782L16.2778 9.77782ZM1.5 10.1H15.5V7.9H1.5V10.1Z" fill="#2170FF"></path>
</svg>