<?xml version="1.0" encoding="utf-8"?>
<!-- Generator: Adobe Illustrator 22.1.0, SVG Export Plug-In . SVG Version: 6.00 Build 0)  -->
<svg version="1.1" id="file-pdf" xmlns="http://www.w3.org/2000/svg" xmlns:xlink="http://www.w3.org/1999/xlink" x="0px" y="0px"
	 viewBox="0 0 34 31" style="enable-background:new 0 0 34 31;" xml:space="preserve">
<style type="text/css">
	.file-pdf-st0{fill:none;stroke:#3C5A93;stroke-width:1.4;}
	.file-pdf-st1{fill:#2170FF;}
	.file-pdf-st2{fill:#FFFFFF;}
</style>
<path class="file-pdf-st0" d="M15,0.7h14c2.4,0,4.3,1.9,4.3,4.3v21c0,2.4-1.9,4.3-4.3,4.3H15c-2.4,0-4.3-1.9-4.3-4.3V5
	C10.7,2.6,12.6,0.7,15,0.7z"/>
<path class="file-pdf-st1" d="M4,10h23c2.2,0,4,1.8,4,4v8c0,2.2-1.8,4-4,4H4c-2.2,0-4-1.8-4-4v-8C0,11.8,1.8,10,4,10z"/>
<path class="file-pdf-st2" d="M3.6,22.1c-0.3,0-0.5-0.1-0.8-0.3c-0.2-0.2-0.3-0.4-0.3-0.7c0-0.3,0.1-0.5,0.3-0.7c0.2-0.2,0.5-0.3,0.8-0.3
	c0.3,0,0.6,0.1,0.8,0.3c0.2,0.2,0.3,0.4,0.3,0.7c0,0.3-0.1,0.5-0.3,0.7C4.2,22,3.9,22.1,3.6,22.1z M8,22v-8.4h2.8
	c0.6,0,1.2,0.1,1.6,0.3c0.4,0.2,0.7,0.5,0.9,0.9c0.2,0.4,0.3,0.8,0.3,1.3s-0.1,0.9-0.3,1.3c-0.2,0.4-0.5,0.7-0.9,0.9
	c-0.4,0.2-0.9,0.3-1.6,0.3H9.3V22H8z M9.3,17.6h1.5c0.5,0,0.9-0.1,1.2-0.4c0.3-0.3,0.4-0.6,0.4-1c0-0.4-0.1-0.8-0.4-1
	c-0.2-0.3-0.6-0.4-1.2-0.4H9.3V17.6z M15.1,22v-8.4h2c1.4,0,2.4,0.4,3,1.1c0.7,0.7,1,1.8,1,3.1c0,1.3-0.3,2.3-1,3.1
	c-0.7,0.7-1.7,1.1-3,1.1H15.1z M16.3,20.8H17c1,0,1.7-0.3,2.1-0.8c0.4-0.6,0.6-1.3,0.6-2.2s-0.2-1.7-0.6-2.2
	c-0.4-0.6-1.1-0.8-2.1-0.8h-0.7V20.8z M22.6,22v-8.4H28v1.2h-4.1v2.6h3.5v1.1h-3.5V22H22.6z"/>
</svg>
