<svg width="18" height="18" viewBox="0 0 18 18" fill="none" xmlns="http://www.w3.org/2000/svg">
      <circle cx="9" cy="9" r="9" fill="#3f3f3f"></circle>
      <circle cx="9" cy="9" r="8.5" stroke="none" stroke-opacity="0.5"></circle>
      <path
        d="M9.09716 4.5C9.95396 4.5 10.6386 4.7352 11.151 5.2056C11.6718 5.676 11.9322 6.3186 11.9322 7.1334C11.9322 7.9818 11.6634 8.6202 11.1258 9.0486C10.5882 9.477 9.87416 9.6912 8.98376 9.6912L8.93336 10.6866H7.68596L7.62296 8.7084H8.03876C8.85356 8.7084 9.47516 8.5992 9.90356 8.3808C10.3404 8.1624 10.5588 7.7466 10.5588 7.1334C10.5588 6.6882 10.4286 6.3396 10.1682 6.0876C9.91616 5.8356 9.56336 5.7096 9.10976 5.7096C8.65616 5.7096 8.29916 5.8314 8.03876 6.075C7.77836 6.3186 7.64816 6.6588 7.64816 7.0956H6.29996C6.29996 6.5916 6.41336 6.1422 6.64016 5.7474C6.86696 5.3526 7.19036 5.046 7.61036 4.8276C8.03876 4.6092 8.53436 4.5 9.09716 4.5ZM8.29076 13.4712C8.03036 13.4712 7.81196 13.383 7.63556 13.2066C7.45916 13.0302 7.37096 12.8118 7.37096 12.5514C7.37096 12.291 7.45916 12.0726 7.63556 11.8962C7.81196 11.7198 8.03036 11.6316 8.29076 11.6316C8.54276 11.6316 8.75696 11.7198 8.93336 11.8962C9.10976 12.0726 9.19796 12.291 9.19796 12.5514C9.19796 12.8118 9.10976 13.0302 8.93336 13.2066C8.75696 13.383 8.54276 13.4712 8.29076 13.4712Z"
        fill="#1f1f1f"
      ></path>
    </svg>