<svg class="searchbar__glass" width="15" height="15" viewBox="0 0 17 17" fill="none"
  xmlns="http://www.w3.org/2000/svg">
  <path d="M1.51569 16.2567L5.72376 12.3125C6.96043 13.3266 8.51641 13.8823 10.1363 13.8823C13.9209 13.8823 17 10.8806 17 7.19113C17 3.5017 13.9209 0.5 10.1363 0.5C6.35165 0.5 3.27251 3.5017 3.27251 7.19113C3.27251 8.57619 3.70105 9.89609 4.51455 11.0246L0.274549 14.9988C0.0975831 15.1649 -6.5079e-07 15.3883 -6.61256e-07 15.6278C-6.71162e-07 15.8544 0.0886319 16.0694 0.24978 16.2326C0.592073 16.5794 1.15967 16.5904 1.51569 16.2567ZM15.2095 7.19113C15.2095 9.9182 12.9337 12.1367 10.1363 12.1367C7.33883 12.1367 5.06305 9.9182 5.06305 7.19113C5.06305 4.46406 7.33883 2.24551 10.1363 2.24551C12.9337 2.24551 15.2095 4.46406 15.2095 7.19113Z"  fill="#FFFFFF"></path>
  <defs>
    <linearGradient id="sbbbb" x1="17" y1="0.5" x2="11.3195" y2="19.827" gradientUnits="userSpaceOnUse">
      <stop stop-color="var(--c-accent--co)"></stop>
      <stop offset="1" stop-color="var(--c-accent--co-next)"></stop>
    </linearGradient>
  </defs>
</svg>