<svg viewBox="0 0 34 35" fill="none"
  xmlns="http://www.w3.org/2000/svg">
  <g clip-path="url(#clip0)">
    <path d="M17 34.0635C26.3888 34.0635 34 26.4523 34 17.0635C34 7.67464 26.3888 0.0634766 17 0.0634766C7.61116 0.0634766 0 7.67464 0 17.0635C0 26.4523 7.61116 34.0635 17 34.0635Z" fill="#2195FB"></path>
    <path d="M7.77904 16.6952L24.1699 10.3754C24.9306 10.1006 25.595 10.561 25.3485 11.7114L25.35 11.7099L22.5591 24.858C22.3523 25.7902 21.7984 26.0169 21.0235 25.5777L16.7735 22.4454L14.7235 24.4203C14.4969 24.6469 14.3056 24.8382 13.8665 24.8382L14.1682 20.5131L22.0449 13.3972C22.3877 13.0954 21.9684 12.9254 21.5165 13.2258L11.7825 19.3543L7.58638 18.0453C6.67546 17.7563 6.65563 17.1344 7.77904 16.6952Z" fill="white"></path>
  </g>
  <defs>
    <clipPath id="clip0">
      <rect width="34" height="34" fill="white" transform="translate(0 0.0634766)"></rect>
    </clipPath>
  </defs>
</svg>