<svg width="55" height="55" viewBox="0 0 55 55" fill="none" xmlns="http://www.w3.org/2000/svg">
<g clip-path="url(#clip0_486_62)">
<path d="M2.41092 11.7019H44.1491C45.2536 11.7019 46.1491 12.5973 46.1491 13.7019V32.5092C46.1491 35.8229 43.4628 38.5092 40.1491 38.5092H2.41092V11.7019Z" fill="url(#paint0_linear_486_62)"/>
<path d="M4.52728 17.4655C4.52728 15.2563 6.31814 13.4655 8.52728 13.4655H42.0327C43.1373 13.4655 44.0327 14.3609 44.0327 15.4655V34.7454C44.0327 35.85 43.1373 36.7454 42.0327 36.7454H8.52729C6.31815 36.7454 4.52728 34.9546 4.52728 32.7454V17.4655Z" fill="url(#paint1_linear_486_62)"/>
<circle cx="34.3607" cy="13.3171" r="5.70181" transform="rotate(-16.3468 34.3607 13.3171)" fill="url(#paint2_linear_486_62)" stroke="url(#paint3_linear_486_62)" stroke-width="2"/>
<path d="M36.3537 11.4842C36.0748 10.7703 35.3715 10.7042 34.5518 10.8611L34.2628 9.84318L33.6432 10.0191L33.9246 11.0103C33.7617 11.0565 33.5961 11.107 33.4316 11.1572L33.1485 10.1595L32.5292 10.3353L32.8179 11.353C32.6846 11.3938 32.5535 11.4338 32.4251 11.4703L32.4241 11.4671L31.5694 11.7094L31.7574 12.3711C31.7574 12.3711 32.2125 12.2325 32.2073 12.2431C32.4583 12.1719 32.5814 12.2944 32.6408 12.4134L32.9701 13.5731C32.9874 13.5682 33.0102 13.5625 33.0368 13.5588C33.0161 13.5647 32.9941 13.5708 32.9714 13.5775L33.4324 15.2022C33.4438 15.2842 33.4331 15.4234 33.2578 15.4735C33.2678 15.4782 32.8074 15.6012 32.8074 15.6012L32.8943 16.3762L33.7007 16.1473C33.8508 16.1049 33.9992 16.0655 34.1444 16.0252L34.4369 17.0547L35.0559 16.8791L34.7667 15.8604C34.9377 15.8157 35.1025 15.7704 35.2631 15.7246L35.5506 16.7387L36.1702 16.5627L35.8787 15.5349C36.9034 15.1794 37.558 14.7101 37.3708 13.7061C37.2203 12.8977 36.7501 12.6514 36.1184 12.6772C36.4258 12.3923 36.5589 12.0062 36.3539 11.4842L36.3537 11.4842ZM36.1117 13.9317C36.3304 14.701 34.9882 14.9874 34.5683 15.107L34.1813 13.7429C34.6014 13.6238 35.8839 13.1292 36.1117 13.9317ZM35.2772 12.0889C35.4757 12.7889 34.3538 13.0191 34.004 13.1184L33.6529 11.8813C34.0027 11.782 35.0698 11.3589 35.2772 12.0889Z" fill="url(#paint4_linear_486_62)"/>
<circle cx="46.5017" cy="36.7455" r="4.43818" transform="rotate(12.5 46.5017 36.7455)" fill="url(#paint5_linear_486_62)" stroke="url(#paint6_linear_486_62)"/>
<g clip-path="url(#clip1_486_62)">
<path opacity="0.5" d="M47.0811 33.9835L48.1502 37.1644L46.6295 36.0208L47.0811 33.9835Z" fill="white"/>
<path opacity="0.1" d="M48.1502 37.1644L46.2374 37.7891L46.6295 36.0208L48.1502 37.1644Z" fill="white"/>
<path d="M47.0818 33.9837L44.7686 36.4148L46.6301 36.021L47.0818 33.9837Z" fill="white"/>
<path opacity="0.5" d="M46.1671 38.1095L45.8603 39.4934L48.0807 37.4855L46.1671 38.1095Z" fill="white"/>
<path d="M45.8603 39.4935L46.1671 38.1095L44.6974 36.7355L45.8603 39.4935Z" fill="white"/>
<path opacity="0.3" d="M44.7686 36.4148L46.2381 37.7893L46.6301 36.021L44.7686 36.4148Z" fill="white"/>
</g>
<path fill-rule="evenodd" clip-rule="evenodd" d="M10.3284 20.6461L35.1247 25.7384V39.0373L9.57956 31.7422C9.55843 30.7042 9.53593 29.6912 9.51355 28.6839L9.51313 28.6654C9.45568 26.0792 9.3991 23.5292 9.36673 20.6461H10.3284ZM39.4374 48.5204L9.68746 40.0245L2.76363 38.0472C2.76363 34.9299 2.73236 32.2613 2.68843 29.7743C2.6586 28.0852 2.62294 26.4799 2.58727 24.8746L2.58727 24.8745C2.49909 20.9054 2.41091 16.9363 2.41091 11.7019L7.70181 11.7019L39.7897 18.2916C40.908 18.5213 42.0529 20.1453 42.0529 21.5019V46.1523C42.0529 47.984 40.9754 48.9596 39.4374 48.5204Z" fill="url(#paint7_linear_486_62)"/>
<path fill-rule="evenodd" clip-rule="evenodd" d="M39.1696 19.9271L2.41091 11.7018L2.41091 11.702C1.6317 11.7019 1 12.3336 1 13.1128V36.6272C1 37.4636 1.52041 38.2116 2.30458 38.5025L2.41091 38.5419L37.7176 48.0881C39.234 48.4981 40.2893 47.522 40.2893 45.7094V21.5303C40.2893 20.8579 39.7262 20.0516 39.1696 19.9271Z" fill="url(#paint8_linear_486_62)"/>
<path d="M2.41092 38.5536L40.2893 38.5535L40.2893 45.7079C40.2893 47.5209 39.2333 48.4975 37.7161 48.0878L2.41092 38.5536Z" fill="url(#paint9_linear_486_62)"/>
<circle cx="27.1762" cy="9.65998" r="0.592459" transform="rotate(-70.6713 27.1762 9.65998)" fill="#8397FF"/>
<g filter="url(#filter0_f_486_62)">
<circle cx="27.1764" cy="9.66001" r="0.888689" transform="rotate(-70.6713 27.1764 9.66001)" fill="#8397FF"/>
</g>
<circle cx="51.8671" cy="30.8237" r="0.592459" transform="rotate(-70.6713 51.8671 30.8237)" fill="#8397FF"/>
<g filter="url(#filter1_f_486_62)">
<circle cx="51.8672" cy="30.8236" r="0.888689" transform="rotate(-70.6713 51.8672 30.8236)" fill="#8397FF"/>
</g>
<circle cx="49.6763" cy="31.8073" r="0.368977" transform="rotate(-70.6713 49.6763 31.8073)" fill="#8397FF"/>
<g filter="url(#filter2_f_486_62)">
<circle cx="49.6763" cy="31.8073" r="0.553465" transform="rotate(-70.6713 49.6763 31.8073)" fill="#8397FF"/>
</g>
<path d="M27.5794 20.95C26.9718 20.1191 27.1272 19.1278 27.8365 19.3097L36.2294 21.4618C37.3331 21.7448 38.4252 23.3338 38.4252 24.6565L38.4252 33.8849C38.4252 34.6891 37.6449 34.7138 37.0702 33.9279L27.5794 20.95Z" fill="url(#paint10_linear_486_62)"/>
<path d="M10.3987 36.3449C11.0064 37.1758 10.851 38.1671 10.1416 37.9852L5.66495 36.8373C4.56124 36.5543 3.46909 34.9653 3.46909 33.6425L3.46909 28.765C3.46909 27.9609 4.24939 27.9361 4.82415 28.7221L10.3987 36.3449Z" fill="url(#paint11_linear_486_62)"/>
<path d="M13.2567 38.1726C13.8644 39.0035 13.709 39.9948 12.9996 39.8129L4.60678 37.6608C3.50308 37.3777 2.41093 35.7888 2.41093 34.466L2.41093 25.2377C2.41093 24.4335 3.19122 24.4088 3.76599 25.1947L13.2567 38.1726Z" fill="url(#paint12_linear_486_62)"/>
</g>
<defs>
<filter id="filter0_f_486_62" x="21.1274" y="3.61112" width="12.0979" height="12.0978" filterUnits="userSpaceOnUse" color-interpolation-filters="sRGB">
<feFlood flood-opacity="0" result="BackgroundImageFix"/>
<feBlend mode="normal" in="SourceGraphic" in2="BackgroundImageFix" result="shape"/>
<feGaussianBlur stdDeviation="2.58" result="effect1_foregroundBlur_486_62"/>
</filter>
<filter id="filter1_f_486_62" x="45.8183" y="24.7747" width="12.0979" height="12.0978" filterUnits="userSpaceOnUse" color-interpolation-filters="sRGB">
<feFlood flood-opacity="0" result="BackgroundImageFix"/>
<feBlend mode="normal" in="SourceGraphic" in2="BackgroundImageFix" result="shape"/>
<feGaussianBlur stdDeviation="2.58" result="effect1_foregroundBlur_486_62"/>
</filter>
<filter id="filter2_f_486_62" x="43.9627" y="26.0937" width="11.4272" height="11.4272" filterUnits="userSpaceOnUse" color-interpolation-filters="sRGB">
<feFlood flood-opacity="0" result="BackgroundImageFix"/>
<feBlend mode="normal" in="SourceGraphic" in2="BackgroundImageFix" result="shape"/>
<feGaussianBlur stdDeviation="2.58" result="effect1_foregroundBlur_486_62"/>
</filter>
<linearGradient id="paint0_linear_486_62" x1="44.9145" y1="11.7019" x2="33.6273" y2="38.5092" gradientUnits="userSpaceOnUse">
<stop stop-color="#B60056"/>
<stop offset="0.474752" stop-color="#9308C4" stop-opacity="0.695833"/>
<stop offset="1" stop-color="#F20284"/>
</linearGradient>
<linearGradient id="paint1_linear_486_62" x1="42.9176" y1="13.4655" x2="33.3847" y2="37.0135" gradientUnits="userSpaceOnUse">
<stop stop-color="#FF0078"/>
<stop offset="1" stop-color="#ED2045"/>
</linearGradient>
<linearGradient id="paint2_linear_486_62" x1="34.4826" y1="9.53974" x2="34.3607" y2="20.0189" gradientUnits="userSpaceOnUse">
<stop stop-color="#FFCF54"/>
<stop offset="1" stop-color="#FF8F0B"/>
</linearGradient>
<linearGradient id="paint3_linear_486_62" x1="34.3607" y1="6.61531" x2="34.4826" y2="20.8719" gradientUnits="userSpaceOnUse">
<stop stop-color="#FFA740"/>
<stop offset="0.317708" stop-color="#FFE5A3"/>
<stop offset="1" stop-color="#E47B00"/>
</linearGradient>
<linearGradient id="paint4_linear_486_62" x1="32.5595" y1="10.3179" x2="36.1495" y2="16.5746" gradientUnits="userSpaceOnUse">
<stop stop-color="#FFA666"/>
<stop offset="1" stop-color="#FF7C1D"/>
</linearGradient>
<linearGradient id="paint5_linear_486_62" x1="46.5915" y1="33.9622" x2="46.5017" y2="41.6837" gradientUnits="userSpaceOnUse">
<stop stop-color="#545BFF"/>
<stop offset="1" stop-color="#1E2F97"/>
</linearGradient>
<linearGradient id="paint6_linear_486_62" x1="46.5017" y1="31.8074" x2="46.5915" y2="42.3122" gradientUnits="userSpaceOnUse">
<stop stop-color="#001ABB"/>
<stop offset="0.395833" stop-color="#6379FF"/>
<stop offset="1" stop-color="#071B92"/>
</linearGradient>
<linearGradient id="paint7_linear_486_62" x1="41.9163" y1="19.924" x2="2.88075" y2="38.141" gradientUnits="userSpaceOnUse">
<stop offset="0.171875" stop-color="#6918B9"/>
<stop offset="0.375" stop-color="#C800C0"/>
<stop offset="0.635417" stop-color="#3278FF"/>
<stop offset="0.890625" stop-color="#0014C8"/>
</linearGradient>
<linearGradient id="paint8_linear_486_62" x1="35.5672" y1="47.3796" x2="17.7167" y2="2.02028" gradientUnits="userSpaceOnUse">
<stop stop-color="#21F3CD"/>
<stop offset="0.28125" stop-color="#21DFF3"/>
<stop offset="0.567708" stop-color="#2182F3"/>
<stop offset="0.875" stop-color="#0015D0"/>
</linearGradient>
<linearGradient id="paint9_linear_486_62" x1="21.3501" y1="27.619" x2="11.8805" y2="44.0208" gradientUnits="userSpaceOnUse">
<stop stop-color="#FFF200"/>
<stop offset="1" stop-color="#FFF200" stop-opacity="0.46"/>
</linearGradient>
<linearGradient id="paint10_linear_486_62" x1="38.5654" y1="22.2008" x2="29.4846" y2="26.9637" gradientUnits="userSpaceOnUse">
<stop stop-color="#84CBFF"/>
<stop offset="1" stop-color="#C1E5FF" stop-opacity="0"/>
</linearGradient>
<linearGradient id="paint11_linear_486_62" x1="3.37324" y1="36.1539" x2="9.58192" y2="32.8975" gradientUnits="userSpaceOnUse">
<stop stop-color="#DFFF84"/>
<stop offset="1" stop-color="#C1E5FF" stop-opacity="0"/>
</linearGradient>
<linearGradient id="paint12_linear_486_62" x1="2.27073" y1="36.9217" x2="11.3516" y2="32.1589" gradientUnits="userSpaceOnUse">
<stop stop-color="#84CBFF"/>
<stop offset="1" stop-color="#C1E5FF" stop-opacity="0"/>
</linearGradient>
<clipPath id="clip0_486_62">
<rect width="55" height="55" fill="white"/>
</clipPath>
<clipPath id="clip1_486_62">
<rect width="3.52727" height="5.64363" fill="white" transform="translate(45.3907 33.6088) rotate(12.5)"/>
</clipPath>
</defs>
</svg>
